<?xml version="1.0" encoding="UTF-8"?><svg id="Layer_1" xmlns="http://www.w3.org/2000/svg" viewBox="0 0 105.1951 96.6258"><path d="M101.0794,21.9165c-.63-.6357-1.3087-1.2019-2.0344-1.7007,1.3369-1.7418,2.0569-3.8625,2.0569-6.0881,0-2.6831-1.0444-5.1994-2.9381-7.0969-1.8938-1.8956-4.4138-2.94-7.0913-2.94-2.2275,0-4.3481,.7257-6.09,2.0625-.4987-.7256-1.065-1.41-1.7006-2.0381-5.2144-5.175-13.6744-5.5125-19.26-.7669-3.0862,2.625-4.8731,6.2832-5.04,10.3107-.1575,3.9694,1.3594,7.8562,4.1681,10.665,1.7232,1.7231,4.3557,2.0156,6.1819,2.0868,.4106,.015,.5681,.3075,.6169,.4332,.0581,.1481,.1162,.4368-.1481,.7068l-3.4332,3.4332c-2.2012-.0544-4.3068,.7781-5.8818,2.3493-1.5713,1.575-2.4075,3.6807-2.3532,5.8819l-29.355,29.3569-4.62-4.6219c-1.1306-1.1287-2.9662-1.1287-4.095,0l-3.39,3.39c-1.1287,1.1288-1.1287,2.9681,0,4.0988l4.6219,4.6162-2.7712,2.7675-10.1888-10.1869c-1.1287-1.1306-2.9644-1.1306-4.095,0l-3.3881,3.3882c-.5494,.5493-.8513,1.2731-.8513,2.0475s.3019,1.5018,.8513,2.0475l10.1887,10.1868-.8418,.8419c-2.16,2.1656-2.16,5.6888,.0037,7.8525,1.0481,1.0482,2.4394,1.6256,3.9244,1.6256s2.8762-.5774,3.9281-1.6256l47.9344-47.9381c.0675,.0094,.135,.0094,.2025,.0094,2.1187,0,4.1437-.8325,5.67-2.3625,1.575-1.5713,2.4112-3.6769,2.3531-5.8688l3.4388-3.4369c.2643-.2662,.5531-.2081,.7068-.1499,.12,.045,.4125,.2024,.4313,.6131,.0675,1.8318,.36,4.4587,2.0794,6.1819,2.6718,2.6737,6.3262,4.1774,10.0931,4.1774,.1931,0,.3825-.0056,.5756-.015,4.0238-.1612,7.6856-1.9518,10.3106-5.0399,4.7419-5.5801,4.4044-14.04-.7706-19.2544Zm-22.95-2.8763c-1.2956,1.2956-3.0187,2.0119-4.8506,2.0119-1.8356,0-3.5588-.7163-4.8506-2.0119-1.2957-1.2956-2.0119-3.0187-2.0119-4.8506s.7162-3.555,2.0119-4.8506c1.2918-1.2957,3.015-2.0119,4.8506-2.0119,1.8319,0,3.555,.7162,4.8506,2.0119,1.2956,1.2956,2.0081,3.0187,2.0081,4.8506s-.7125,3.555-2.0081,4.8506Zm9.0413-7.6087c.855-.855,1.9931-1.3275,3.2081-1.3275,1.2112,0,2.3494,.4725,3.2044,1.3275,.8587,.8587,1.3275,1.9968,1.3275,3.2081s-.4688,2.3494-1.3275,3.2081c-.855,.855-1.9932,1.3275-3.2044,1.3275-1.215,0-2.3531-.4725-3.2081-1.3275-1.7682-1.7681-1.7682-4.6481,0-6.4162Zm8.5987,25.3031c-1.2956,1.2956-3.0187,2.0119-4.8544,2.0119-1.8318,0-3.555-.7163-4.8525-2.0119-1.2956-1.2956-2.0062-3.015-2.0062-4.8506,0-1.8319,.7106-3.555,2.0062-4.8507,1.2975-1.2974,3.0207-2.0081,4.8525-2.0081,1.8357,0,3.5588,.7107,4.8544,2.0081,1.2956,1.2957,2.0081,3.0188,2.0081,4.8507,0,1.8356-.7125,3.555-2.0081,4.8506Z"/></svg>
